<?xml version="1.0" standalone="no"?><!DOCTYPE svg PUBLIC "-//W3C//DTD SVG 1.1//EN" "http://www.w3.org/Graphics/SVG/1.1/DTD/svg11.dtd"><svg t="1645692499567" class="icon" viewBox="0 0 1024 1024" version="1.1" xmlns="http://www.w3.org/2000/svg" p-id="5599" xmlns:xlink="http://www.w3.org/1999/xlink" width="200" height="200"><defs><style type="text/css"></style></defs><path d="M512 632c100.8 0 184-83.2 184-184S612.8 264 512 264 328 347.2 328 448 411.2 632 512 632z m0-320c75.2 0 136 60.8 136 136s-60.8 136-136 136-136-60.8-136-136 60.8-136 136-136z" p-id="5600" fill="#1296db"></path><path d="M792 785.6c70.4-72 112-168 112-273.6 0-216-176-392-392-392S120 296 120 512c0 105.6 41.6 201.6 110.4 273.6 0 0 0 1.6 1.6 1.6 68.8 70.4 161.6 112 259.2 116.8h41.6c97.6-4.8 190.4-46.4 259.2-118.4zM512 168c190.4 0 344 153.6 344 344 0 76.8-25.6 148.8-68.8 206.4-16-51.2-38.4-96-68.8-134.4-8-11.2-24-12.8-33.6-4.8-11.2 8-12.8 22.4-4.8 33.6 32 41.6 56 92.8 68.8 148.8-4.8 3.2-8 8-12.8 11.2-3.2 1.6-4.8 4.8-8 6.4-6.4 4.8-12.8 9.6-20.8 16-1.6 1.6-3.2 3.2-4.8 3.2l-24 14.4c-1.6 0-3.2 1.6-3.2 1.6-8 4.8-17.6 9.6-25.6 12.8-1.6 0-1.6 1.6-3.2 1.6-9.6 3.2-17.6 6.4-27.2 9.6-1.6 0-3.2 1.6-4.8 1.6-8 3.2-17.6 4.8-27.2 6.4-1.6 0-4.8 1.6-6.4 1.6-8 1.6-17.6 3.2-27.2 4.8-3.2 0-4.8 1.6-8 1.6-11.2 1.6-22.4 1.6-33.6 1.6s-22.4 0-33.6-1.6c-3.2 0-4.8 0-8-1.6-9.6-1.6-17.6-1.6-27.2-4.8-1.6 0-4.8-1.6-6.4-1.6-9.6-1.6-17.6-4.8-27.2-6.4-1.6 0-3.2-1.6-4.8-1.6-9.6-3.2-17.6-6.4-27.2-9.6-1.6 0-1.6-1.6-3.2-1.6-9.6-3.2-17.6-8-25.6-12.8-1.6 0-3.2-1.6-3.2-1.6l-24-14.4c-1.6-1.6-3.2-3.2-4.8-3.2-6.4-4.8-14.4-9.6-20.8-16-3.2-1.6-4.8-4.8-8-6.4-4.8-3.2-8-8-12.8-11.2 12.8-56 36.8-107.2 68.8-148.8 8-11.2 6.4-25.6-4.8-33.6s-25.6-6.4-33.6 4.8c-30.4 38.4-52.8 84.8-68.8 134.4-43.2-57.6-68.8-128-68.8-206.4 0-190.4 153.6-344 344-344z" p-id="5601" fill="#1296db"></path></svg>