<?xml version="1.0" standalone="no"?><!DOCTYPE svg PUBLIC "-//W3C//DTD SVG 1.1//EN" "http://www.w3.org/Graphics/SVG/1.1/DTD/svg11.dtd"><svg t="1646703748748" class="icon" viewBox="0 0 1024 1024" version="1.1" xmlns="http://www.w3.org/2000/svg" p-id="2053" xmlns:xlink="http://www.w3.org/1999/xlink" width="48" height="48"><defs><style type="text/css"></style></defs><path d="M509.92 176C325.504 176 176 325.504 176 509.92c0 184.416 149.504 333.92 333.92 333.92 184.416 0 333.92-149.504 333.92-333.92C843.84 325.504 694.32 176 509.92 176z m0 48c157.904 0 285.92 128 285.92 285.92 0 157.904-128.016 285.92-285.92 285.92C352 795.84 224 667.808 224 509.92 224 352 352 224 509.92 224z m182.64 166.848L461.12 622.288l-136.992-136.992a16 16 0 0 0-22.624 0l-11.312 11.312a16 16 0 0 0 0 22.624l159.616 159.616a16 16 0 0 0 22.624 0l254.08-254.064a16 16 0 0 0 0-22.624l-11.328-11.312a16 16 0 0 0-22.624 0z" p-id="2054" fill="#ffffff"></path></svg>