<?xml version="1.0" standalone="no"?><!DOCTYPE svg PUBLIC "-//W3C//DTD SVG 1.1//EN" "http://www.w3.org/Graphics/SVG/1.1/DTD/svg11.dtd"><svg t="1646816861034" class="icon" viewBox="0 0 1024 1024" version="1.1" xmlns="http://www.w3.org/2000/svg" p-id="5217" width="48" height="48" xmlns:xlink="http://www.w3.org/1999/xlink"><defs><style type="text/css"></style></defs><path d="M128 810.666667v-85.333334h768v85.333334z" p-id="5218" fill="#eeaac9"></path><path d="M725.333333 298.666667v128h-85.333333V298.666667H384v128H298.666667V298.666667H208.341333L139.349333 896h745.301334L815.658667 298.666667H725.333333z m-256-256h85.333334a170.666667 170.666667 0 0 1 170.666666 170.666666h165.674667L981.333333 981.333333H42.666667L132.992 213.333333H298.666667a170.666667 170.666667 0 0 1 170.666666-170.666666z m170.666667 170.666666a85.333333 85.333333 0 0 0-85.333333-85.333333h-85.333334a85.333333 85.333333 0 0 0-85.333333 85.333333h256z" p-id="5219" fill="#eeaac9"></path></svg>