<?xml version="1.0" standalone="no"?><!DOCTYPE svg PUBLIC "-//W3C//DTD SVG 1.1//EN" "http://www.w3.org/Graphics/SVG/1.1/DTD/svg11.dtd"><svg t="1646816967868" class="icon" viewBox="0 0 1024 1024" version="1.1" xmlns="http://www.w3.org/2000/svg" p-id="7019" width="64" height="64" xmlns:xlink="http://www.w3.org/1999/xlink"><defs><style type="text/css"></style></defs><path d="M512 0C229.232 0 0 229.232 0 512s229.232 512 512 512 512-229.232 512-512S794.768 0 512 0z m0 48c256.256 0 464 207.744 464 464 0 114.256-41.376 218.8-109.872 299.664C808.096 673.264 671.456 576 512 576c-159.504 0-295.936 97.44-353.936 235.904C89.456 731.008 48 626.368 48 512 48 255.744 255.744 48 512 48zM194.896 850.576C240.416 718.976 365.12 624 512 624s271.632 94.944 317.152 226.528C746.176 928.304 634.688 976 512 976c-122.672 0-234.144-47.68-317.104-125.424z" fill="#bfbfbf" p-id="7020"></path><path d="M512 546.256c106.032 0 192-85.968 192-192s-85.968-192-192-192-192 85.968-192 192 85.968 192 192 192z m0-336c79.392 0 144 64.608 144 144s-64.608 144-144 144-144-64.608-144-144 64.608-144 144-144z" fill="#bfbfbf" p-id="7021"></path></svg>